<?xml version="1.0" encoding="utf-8"?>
<!-- Generator: Adobe Illustrator 16.0.0, SVG Export Plug-In . SVG Version: 6.00 Build 0)  -->
<!DOCTYPE svg PUBLIC "-//W3C//DTD SVG 1.1//EN" "http://www.w3.org/Graphics/SVG/1.1/DTD/svg11.dtd">
<svg version="1.1" id="Layer_1" xmlns="http://www.w3.org/2000/svg" xmlns:xlink="http://www.w3.org/1999/xlink" x="0px" y="0px"
	 width="960px" height="560px" viewBox="0 0 960 560" enable-background="new 0 0 960 560" xml:space="preserve">
<path opacity="0.25" fill="#F4F9F9" d="M260.005,498.247c-1.815,0.135-3.63,0.387-5.445,0.389
	c-37.643,0.027-75.289-0.271-112.927,0.161c-18.228,0.209-27.871-12.802-27.828-27.931c0.359-126.253,0.324-252.507,0.042-378.76
	c-0.03-13.441,8.858-26.95,26.806-26.836c38.141,0.242,76.285,0.077,114.427,0.106c1.646,0.001,3.292,0.27,4.938,0.412
	c-0.007,2.453,0.024,4.907-0.031,7.36c-0.084,3.758-1.469,7.609,0.87,11.177c-3.694,0.403-4.581,1.893-1.848,4.781
	c1.313,5.545,0.906,11.194,1.019,16.812c-38.325,0.023-76.649,0.05-114.973,0.07c-4.318,0.002-8.647-0.201-12.889,0.888
	c-1.806-0.823-3.798-2.278-4.32,1.27c-0.028,0.194,0.004,0.378,0.095,0.552c-2.939,1.084-1.83,3.625-1.834,5.584
	c-0.067,34.755-0.062,69.511-0.063,104.266c-0.001,16.804,0.014,33.608,0.021,50.412c0,0.692-0.001,1.385-0.001,2.077
	c-0.006,31.609-0.009,63.219-0.02,94.828c-0.01,28.614-0.038,57.229-0.036,85.845c0,6.272,0.06,6.293,6.509,6.264
	c2.478-0.012,4.957-0.038,7.435-0.058c1.352,0.014,2.704,0.026,4.056,0.039c36.996,0.001,73.991,0.002,110.987,0.003
	c0.67,0.002,1.34,0.004,2.011,0.006c0.672,0.039,1.344,0.079,2.016,0.118c1.033,2.9,1.089,5.907,0.979,8.932
	c-7.889,1.192-12.162,5.274-11.948,11.413c0.215,6.193,4.636,10.161,11.964,10.734c-2.583,1.714-2.798,2.181-1.897,2.597
	C261.412,493.277,259.398,496.102,260.005,498.247z"/>
<path opacity="0.25" fill="#F4F9F9" d="M679.886,499.025c-12.828-0.023-12.891-0.023-12.887-12.733
	c0.01-28.775,0.087-57.55,0.136-86.324c46.544,0.013,93.088,0.052,139.632-0.021c3.562-0.006,5.354,0.456,5.327,4.783
	c-0.197,31.452-0.127,62.907-0.142,94.361c-39.534-0.007-79.069-0.014-118.604-0.02C688.86,499.057,684.373,499.041,679.886,499.025
	z"/>
<path opacity="0.25" fill="#DFE9EA" d="M667.13,396.085c0.004-36.049,0.008-72.097,0.011-108.146c1.83,0.021,3.66,0.059,5.49,0.06
	c46.426,0.032,92.853,0.062,139.277,0.09c0.033,33.986-0.031,67.973,0.209,101.957c0.033,4.785-1.198,6.078-6.04,6.062
	C759.762,395.945,713.446,396.054,667.13,396.085z M712.579,327.96c8.653,0,17.312-0.204,25.958,0.09
	c4.072,0.138,4.583-1.685,4.611-5.058c0.028-3.362-0.41-5.142-4.507-5.091c-17.14,0.209-34.282,0.187-51.424,0.013
	c-3.757-0.038-4.456,1.54-4.297,4.757c0.146,2.923-0.321,5.554,4.197,5.389C695.596,327.749,704.091,327.97,712.579,327.96z
	 M705.988,301.92c0-0.087,0-0.174-0.001-0.262c-6.321,0-12.645,0.01-18.966-0.006c-2.395-0.004-4.584,0.412-3.974,3.506
	c0.464,2.352-2.077,6.523,2.639,6.626c13.149,0.284,26.313,0.303,39.464,0.009c5.107-0.114,2.129-4.574,2.761-7.025
	c0.751-2.918-1.126-2.974-3.44-2.906C718.314,302.036,712.149,301.92,705.988,301.92z M748.319,311.886
	c3.33,0,6.664,0.088,9.988-0.039c1.528-0.059,3.8,0.869,4.344-1.267c0.688-2.709,0.598-5.605-0.024-8.387
	c-0.157-0.703-0.988-0.6-1.688-0.586c-7.948,0.138-15.901,0.396-23.848,0.25c-3.584-0.065-4.12,1.569-4.041,4.541
	c0.081,3.03-0.063,5.777,4.279,5.54C740.983,311.737,744.656,311.896,748.319,311.886z"/>
<path opacity="0.25" fill="#F4F9F9" d="M811.908,288.089c-46.426-0.028-92.853-0.058-139.277-0.09c-1.83-0.001-3.66-0.039-5.49-0.06
	c-0.044-26.459,0-52.918-0.215-79.376c-0.038-4.647,2.516-4.534,5.733-4.531c35.616,0.037,71.231,0.038,106.849,0.021
	c10.815-0.005,21.631-0.091,32.446-0.14C811.939,231.973,811.924,260.03,811.908,288.089z"/>
<path opacity="0.25" fill="#DFE9EA" d="M404.12,472.75c0.189,14.69-11.49,27.08-26.1,25.49c-0.32-0.76-0.63-0.96-0.94,0.01
	c-1.02,0.52-2.04,0.48-3.05-0.01c-0.32-0.99-0.83-1.932-1.97-1.892c-1.09,0.04-0.98,1.102-1.11,1.882c-1.3,0.55-2.61,0.55-3.92,0.05
	c-1.34-2.84-2.69-2.852-4.06-0.021c-2.65,0.66-5.3,0.57-7.96,0.03c-1.35-1.86-2.69-1.84-4.02,0.01c-2.33,0.562-4.65,0.57-6.96-0.068
	c-0.33-0.99-0.84-1.94-2-1.87c-1.09,0.068-0.96,1.148-1.08,1.93c-10.31,0.66-20.62,0.61-30.93,0.02c-1-1.79-2.01-1.79-3.04-0.028
	c-15.66,0.64-31.32,0.688-46.97-0.03c-0.61-2.15,1.4-4.97-1.89-6.49c-0.9-0.42-0.69-0.88,1.89-2.6c6.53-1.771,9.89-5.41,9.94-10.74
	c0.05-5.649-2.9-9.02-9.95-11.41c0.11-3.02,0.05-6.028-0.98-8.93c42.66-0.021,85.32-0.08,127.98-0.01c3.98,0.01,6.09-0.66,6.07-5.41
	c-0.14-44.29-0.09-88.58-0.08-132.87c0-20.6,0.03-41.2,0.05-61.79c-0.03-48.39-0.05-96.77-0.07-145.15
	c-0.01-6.15-0.6-6.81-6.81-6.84c-12.97-0.05-25.93-0.04-38.9,0.01c-1.69,0.01-3.84-0.75-4.51,1.87c-1.18-0.36-2.37-0.72-3.55-1.09
	c-0.95-0.87-2.14-0.8-3.3-0.8c-8.97,0.02-17.93,0.04-26.9,0.07c-16.32-0.05-32.65-0.1-48.97-0.15c-0.11-5.62,0.29-11.27-1.02-16.81
	c3.66-0.42,3.76-2.21,1.85-4.78c-2.34-3.57-0.96-7.42-0.87-11.18c0.05-2.45,0.02-4.91,0.03-7.36c7.96-0.99,15.95-0.38,23.92-0.4
	c30.32-0.08,60.63-0.06,90.94-0.03c4.49,0,8.99,0.06,13.31,1.6c8.65,3.09,15.68,11.74,15.7,20.66c0.091,56.79,0,113.58-0.04,170.38
	v2.01c-2.659,2.92-2.67,7.04-0.01,9.98c0.05,36.29,0.13,72.58,0.16,108.87C404.03,410.16,403.71,441.46,404.12,472.75z"/>
<path opacity="0.25" fill="#DFE9EA" d="M820.03,135.774c-19.353,12.259-40.028,14.755-61.541,7.272
	c-13.002-4.521-21.039-14.713-26.641-26.941c-2.217-4.838-4.561-9.624-6.59-14.54c-1.854-4.489-4.866-6.931-9.819-7.059
	c-4.896-0.127-7.188,3.049-8.814,6.846c-3.143,7.341-6.329,14.621-10.439,21.518c-8.048,13.502-19.701,21.521-35.242,23.396
	c-16.927,2.043-33.135-0.322-47.937-9.442c-2.98-3.993-7.706-6.66-9.053-11.897c-2.701-9.775-5.424-19.545-8.09-29.33
	c-0.783-2.871-2.167-5.745-4.875-6.586c-4.946-1.536-5.214-5.368-5.762-9.29c-1.456-10.459-0.184-12.61,10.865-13.269
	c19.451-1.158,38.883-1.158,58.371,0.931c19.4,2.08,38.148,7.672,57.607,9.393c10.561,0.933,20.536-1.118,30.639-3.019
	c21.784-4.098,43.672-7.355,65.843-8.231c11.348-0.448,22.609,0.864,33.852,2.359c3.475,0.462,4.521,2.264,4.229,5.422
	c-0.323,3.482-0.509,6.979-0.928,10.449c-0.19,1.581-0.245,3.539-2.369,3.948c-4.948,0.951-6.477,4.966-7.703,8.921
	c-2.706,8.731-5.092,17.562-7.607,26.353C825.906,127.583,823.426,131.965,820.03,135.774z M819.35,83.331
	c1.204-3.153-1.488-4.263-3.279-5.164c-3.517-1.769-7.247-3.067-11.348-3.2c-15.906-0.516-31.748,0.042-47.165,4.252
	c-5.151,1.406-11.137,1.768-14.669,6.91c-5.39,0.483-6.729,4.261-6.845,8.752c-0.35,13.616,4.742,25.343,13.062,35.766
	c3.766,4.718,9.063,7.246,14.952,8.329c9.729,1.788,19.506,2.125,29.244,0.108c7.504-1.555,15.005-3.229,20.605-9.131
	c2.826-4.156,5.324-8.466,6.252-13.502c1.933-8.625,3.068-17.354,2.771-26.193C822.842,87.585,822.917,84.399,819.35,83.331z
	 M675.954,80.046c-17.079-4.582-34.487-6.151-52.073-4.921c-5.414,0.379-11.373,1.06-14.089,7.287
	c-2.405,1.52-2.908,4.037-2.926,6.501c-0.036,5.114-0.165,10.289,0.521,15.332c0.718,5.258,0.141,10.917,3.589,15.577
	c1.213,3.919,1.994,8.099,6.186,10.215c1.101,4.013,4.832,4.666,7.91,5.914c12.027,4.873,24.587,5.207,37.247,3.685
	c10.036-1.208,17.669-6.247,22.693-15.145c3.365-5.958,6.533-12.101,7.544-18.846c0.881-5.882,2.761-12.169-1.555-17.726
	C686.681,83.968,681.584,81.498,675.954,80.046z"/>
<path opacity="0.25" fill="#DFE9EA" d="M473.87,238.222c0.018,85.325,0.013,170.651,0.133,255.977
	c0.005,3.667-0.84,5.053-4.677,4.808c-4.812-0.308-9.684-0.315-14.486,0.073c-4.174,0.338-4.905-1.387-4.894-5.119
	c0.12-36.829,0.075-73.658,0.077-110.487c0-46.827-0.008-93.655,0.023-140.482c0.001-1.761-0.642-3.692,0.858-5.233
	C458.561,237.912,466.215,238.066,473.87,238.222z"/>
<path opacity="0.25" fill="#F4F9F9" d="M623.909,314.968c-0.033,41.698-0.067,83.396-0.102,125.094
	c-11.545-0.002-23.09-0.004-34.635-0.006c-0.062-29.738-0.145-59.479-0.175-89.22c-0.012-11.961,0.092-23.922,0.143-35.883
	C600.73,314.958,612.32,314.963,623.909,314.968z M609.991,416.392c0.06-0.003,0.119-0.006,0.18-0.01
	c-0.197-3.806-0.478-7.609-0.562-11.419c-0.067-2.966-2.242-1.779-3.625-1.915c-1.276-0.126-2.772-0.162-2.784,1.883
	c-0.04,6.605-0.05,13.212-0.218,19.814c-0.07,2.771,1.312,3.326,3.701,3.301c2.262-0.024,3.417-0.747,3.332-3.17
	C609.914,422.051,609.991,419.22,609.991,416.392z M609.985,392.04c0-1.875-0.087-3.373,0.019-4.858
	c0.202-2.838-1.416-3.303-3.745-3.171c-2.645,0.149-3.647,1.815-3.177,4.006c0.778,3.617-2.324,7.909,1.866,10.892
	c0.229,0.163,0.647,0.06,0.979,0.081C612.468,399.418,609.027,394.319,609.985,392.04z"/>
<path opacity="0.25" fill="#DFE9EA" d="M821.983,391.004c0.023-0.651,0.05-1.302,0.073-1.953c1.122-0.819,0.937-2.047,0.934-3.178
	c-0.022-8.615-0.072-17.23-0.113-25.845c0.01-0.685,0.019-1.367,0.028-2.051c0.062-23.302,0.127-46.604,0.189-69.904
	c8.591-0.044,17.183-0.087,25.772-0.128c0.011,36.041,0.021,72.082,0.031,108.123c-8.608-0.062-17.218-0.125-25.826-0.188
	c-0.052-0.274-0.146-0.536-0.283-0.78c-0.022-0.688-0.044-1.376-0.064-2.062C822.952,392.186,822.811,391.469,821.983,391.004z"/>
<path opacity="0.25" fill="#D2D6D6" d="M518.84,148.89c-21.608,0.03-43.22,0-64.83,0.13c-2.89,0.02-4.13-0.57-4.08-3.8
	c0.181-11.13,0.181-22.27,0-33.41c-0.06-3.22,1.181-3.84,4.07-3.82c21.61,0.12,43.22,0.11,64.83,0.14
	C518.83,121.71,518.84,135.3,518.84,148.89z"/>
<path opacity="0.25" fill="#F4F9F9" d="M823.142,499.25c-0.062-7.091-0.127-14.181-0.188-21.271
	c0.008-25.996,0.015-51.993,0.021-77.99c8.632-0.007,17.262-0.015,25.892-0.021c0.047,25.588,0.286,51.178,0.052,76.764
	c-0.104,11.316-10.18,21.104-21.807,22.224C825.79,499.08,824.464,499.152,823.142,499.25z"/>
<path opacity="0.25" fill="#DFE9EA" d="M539.836,299.996c0.008,45.381,0.016,90.762,0.022,136.143
	c0.003,17.12,0.021,34.241-0.034,51.362c-0.006,1.924,0.959,4.707-2.732,4.519c-3.051-0.06-6.1-0.117-9.148-0.178
	c0.021-18.097,0.054-36.193,0.062-54.291c0.008-16.883-0.008-33.766-0.01-50.648c-0.003-18.742-0.025-37.485,0.031-56.229
	c0.006-1.903-0.746-4.028,0.974-5.674c0.357,0.369,0.562,1.28,1.282,0.363c-0.428-0.12-0.855-0.241-1.285-0.361
	c-1.613-7.239-0.719-14.599-1.041-21.901c2.165-0.035,4.354-0.287,6.489-0.049C537.117,303.348,538.904,302.546,539.836,299.996z"/>
<path opacity="0.25" fill="#F4F9F9" d="M527.956,303.102c0.323,7.302-0.571,14.66,1.042,21.899l0.003-0.002
	c-1.72,1.646-0.968,3.77-0.974,5.674c-0.058,18.743-0.034,37.486-0.031,56.229c0.002,16.884,0.018,33.767,0.01,50.648
	c-0.01,18.098-0.041,36.194-0.062,54.292c-2.6,0.482-5.441-0.648-7.834,1.188c-2.035-1.149-3.273-2.35-3.269-5.229
	c0.142-61.116,0.109-122.231,0.116-183.348c0-0.498,0.079-0.995,0.12-1.492C520.705,303.008,524.33,303.055,527.956,303.102z"/>
<path opacity="0.25" fill="#F4F9F9" d="M848.868,287.945c-8.591,0.041-17.183,0.084-25.773,0.127
	c-0.032-19.426-0.04-38.852-0.134-58.277c-0.009-1.786,0.996-4.193-1.929-4.933c0.028-0.244,0.026-0.489-0.003-0.734
	c0.797-0.483,1.018-1.265,1.097-2.118c2.052-5.963,0.275-12.128,0.957-18.163c14.217,1.159,22.362,7.306,25.365,19.187
	c0.281,1.119,0.517,2.29,0.516,3.437C848.956,246.961,848.908,267.453,848.868,287.945z"/>
<path opacity="0.25" fill="#DFE9EA" d="M538.965,203.127c1.575,0.554,1.026,1.91,1.025,2.962
	c-0.035,30.641-0.103,61.281-0.163,91.922c-3.79-2.129-7.96-0.442-11.889-1.18c0.021-5.81,0.095-11.616,0.05-17.424
	c-0.08-10.248-0.336-20.496-0.33-30.743c0.008-13.528,0.195-27.058,0.307-40.586c2.293-0.029,4.609,0.134,6.873-0.139
	C537.518,207.617,539.906,206.711,538.965,203.127z M530.525,216.634c-0.021,0.241-0.043,0.481-0.064,0.723
	c0.093-0.112,0.25-0.218,0.261-0.337C530.732,216.897,530.599,216.764,530.525,216.634z"/>
<path opacity="0.25" fill="#F4F9F9" d="M589.153,493.048c0.012-15.702,0.023-31.404,0.037-47.105
	c11.542,0.001,23.085,0.001,34.628,0.002c0.002,15.704,0.005,31.406,0.007,47.11c-1.989-0.043-3.983-0.02-5.968-0.147
	c-1.73-0.112-3-1.064-2.575-2.886c1.792-7.687-0.034-15.439,0.59-23.15c0.442-5.469-2.034-7.792-7.626-7.836
	c-1.659-0.014-3.319-0.036-4.977,0.009c-3.571,0.096-5.712,2.182-5.883,5.501c-0.318,6.18-0.559,12.419-0.066,18.572
	C598.024,491.921,597.551,492.84,589.153,493.048z"/>
<path opacity="0.25" fill="#F4F9F9" d="M527.965,208.078c-0.111,13.528-0.299,27.058-0.307,40.586
	c-0.006,10.247,0.25,20.495,0.33,30.743c0.045,5.808-0.029,11.614-0.049,17.425c-3.613,0.072-7.229,0.145-10.843,0.215
	c-0.034-25.992-0.069-51.984-0.105-77.977c-0.002-1.393-0.004-2.785-0.006-4.177c0.031-2.312,0.064-4.623,0.098-6.935
	C520.71,207.999,524.338,208.038,527.965,208.078z"/>
<path opacity="0.25" fill="#DFE9EA" d="M518.845,148.891c-0.005-13.588-0.011-27.177-0.018-40.765
	c4.483-0.038,8.97-0.177,13.452-0.092c7.115,0.136,11.523,4.414,11.68,11.423c0.137,6.145,0.158,12.297-0.01,18.439
	c-0.172,6.252-4.873,10.881-11.152,11.058C528.15,149.085,523.496,148.923,518.845,148.891z"/>
<path opacity="0.25" fill="#DFE9EA" d="M589.153,493.048c8.396-0.208,8.871-1.127,8.167-9.932
	c-0.491-6.153-0.252-12.394,0.066-18.572c0.171-3.319,2.312-5.405,5.883-5.501c1.656-0.045,3.316-0.021,4.977-0.009
	c5.592,0.044,8.068,2.367,7.626,7.836c-0.624,7.711,1.202,15.465-0.59,23.149c-0.425,1.821,0.845,2.773,2.575,2.887
	c1.983,0.129,3.979,0.104,5.968,0.147c1.062,4.628-0.442,6.361-5.467,6.077c-7.898-0.448-15.859-0.459-23.758-0.007
	C589.555,499.414,588.119,497.635,589.153,493.048z"/>
<path opacity="0.25" fill="#D2D6D6" d="M516.985,214.894c0.002,1.392,0.004,2.784,0.006,4.177c-4.62-0.976-6.192,0.488-6.143,5.562
	c0.272,27.304,0.123,54.61,0.12,81.916c0,0.999,0.085,2.009-0.029,2.995c-0.151,1.312,0.756,3.225-1.704,3.399
	c-2.733,0.192-2.247-1.792-2.25-3.386c-0.022-15.648-0.034-31.3-0.039-46.949c-0.004-13.82,0.232-27.646-0.112-41.457
	c-0.123-4.912,1.01-7.122,6.166-6.208C514.285,215.171,515.654,214.923,516.985,214.894z"/>
<path opacity="0.25" fill="#F4F9F9" d="M473.87,238.222c-7.655-0.155-15.311-0.31-22.965-0.466
	c1.303-8.016,4.965-15.281,7.288-22.972c2.387,0.01,4.896,1.027,7.056-0.853C468.122,222.028,470.996,230.125,473.87,238.222z"/>
<path opacity="0.25" fill="#F4F9F9" d="M820.03,135.774c3.396-3.81,5.876-8.191,7.996-12.798c4.39,3.875,9.927,6.89,10.311,13.767
	c0.009,0.161,0.105,0.318,0.115,0.48c0.242,3.857,0.393,8.125-3.48,10.051c-4.264,2.12-7.583-0.656-10.083-4.032
	C823.125,140.859,821.64,138.271,820.03,135.774z"/>
<path opacity="0.25" fill="#F4F9F9" d="M603.954,124.926c1.347,5.237,6.071,7.904,9.053,11.897
	c-1.896,2.702-3.739,5.444-5.704,8.096c-2.141,2.892-5.136,4.462-8.63,3.559c-3.671-0.949-4.224-4.421-4.423-7.588
	C593.776,133.386,597.659,128.389,603.954,124.926z"/>
<path opacity="0.25" fill="#DFE9EA" d="M623.909,314.968c-11.589-0.005-23.179-0.01-34.769-0.015
	c-0.045-0.973,0.023-1.966-0.152-2.914c-0.75-4.019,0.889-5.686,4.894-5.138c8.405,0.006,16.812,0.011,25.218,0.017
	C626.604,306.075,623.549,311.542,623.909,314.968z"/>
<path opacity="0.25" fill="#F4F9F9" d="M619.1,306.918c-8.405-0.006-16.812-0.011-25.218-0.017c0.035-0.647,0.09-1.296,0.103-1.942
	c0.123-6.938,0.12-6.938,6.993-6.962c3.674,0.001,7.347,0.002,11.02,0.003C618.73,297.986,618.73,297.986,619.1,306.918z"/>
<path opacity="0.25" fill="#D2D6D6" d="M679.886,499.025c4.487,0.016,8.976,0.03,13.462,0.047c-0.051,4.46-0.257,8.927-0.097,13.38
	c0.103,2.857-0.992,3.548-3.707,3.618c-9.535,0.246-9.521,0.352-9.525-9.116C680.018,504.312,679.933,501.668,679.886,499.025z"/>
<path opacity="0.25" fill="#DFE9EA" d="M623.818,445.943c-11.543-0.001-23.086-0.001-34.628-0.002
	c-0.007-1.961-0.012-3.925-0.018-5.887c11.545,0.002,23.09,0.004,34.635,0.006C623.812,442.022,623.815,443.982,623.818,445.943z"/>
<path opacity="0.25" fill="#D2D6D6" d="M517.099,297.047c3.613-0.07,7.229-0.143,10.842-0.215c3.928,0.736,8.098-0.95,11.888,1.179
	c0.003,0.662,0.005,1.323,0.009,1.985c-0.932,2.55-2.719,3.352-5.39,3.055c-2.136-0.238-4.324,0.014-6.489,0.049
	c-3.627-0.045-7.252-0.092-10.879-0.139C517.086,300.99,517.092,299.02,517.099,297.047z"/>
<path opacity="0.25" fill="#DFE9EA" d="M611.996,298c-3.673-0.001-7.346-0.002-11.02-0.003c0.021-4.146,0.039-8.289,0.074-12.435
	c0.003-0.322,0.13-0.646,0.201-0.967C611.031,286.232,612.014,287.46,611.996,298z"/>
<path opacity="0.25" fill="#D2D6D6" d="M520.109,493.03c2.393-1.837,5.234-0.705,7.834-1.188c3.049,0.06,6.098,0.117,9.147,0.177
	c-0.166,6.979-0.166,6.979-7.114,6.984c-1.316,0.001-2.664-0.179-3.946,0.036C521.115,499.867,518.998,498.074,520.109,493.03z"/>
<path opacity="0.25" fill="#D2D6D6" d="M527.965,208.078c-3.627-0.04-7.255-0.079-10.882-0.119c-0.897-3.799,0.298-5.337,4.47-5.055
	c5.782,0.392,11.605,0.177,17.412,0.223c0.941,3.584-1.447,4.49-4.127,4.812C532.574,208.212,530.258,208.049,527.965,208.078z"/>
<path opacity="0.25" fill="#DFE9EA" d="M465.249,213.932c-2.16,1.88-4.669,0.862-7.056,0.853c0.938-3.092,1.875-6.183,2.973-9.8
	C463.905,207.785,464.104,211.082,465.249,213.932z"/>
<path opacity="0.25" fill="#DFE9EA" d="M403.837,269.993c-2.653-2.946-2.647-7.065,0.011-9.986
	C403.844,263.336,403.84,266.664,403.837,269.993z"/>
<path opacity="0.25" fill="#DFE9EA" d="M362.97,498.26c1.37-2.834,2.723-2.815,4.06,0.022
	C365.673,498.849,364.32,498.847,362.97,498.26z"/>
<path opacity="0.25" fill="#DFE9EA" d="M370.946,498.229c0.135-0.775,0.025-1.84,1.116-1.876c1.136-0.037,1.646,0.9,1.967,1.885
	C373,498.755,371.972,498.772,370.946,498.229z"/>
<path opacity="0.25" fill="#DFE9EA" d="M340.949,498.293c0.125-0.785-0.006-1.86,1.08-1.931c1.157-0.075,1.669,0.879,1.999,1.869
	C343.012,498.755,341.985,498.776,340.949,498.293z"/>
<path opacity="0.25" fill="#DFE9EA" d="M350.986,498.301c1.335-1.849,2.676-1.869,4.024-0.014
	C353.671,498.883,352.33,498.828,350.986,498.301z"/>
<path opacity="0.25" fill="#DFE9EA" d="M306.983,498.283c1.025-1.767,2.037-1.769,3.034,0.022
	C309.001,498.802,307.99,498.802,306.983,498.283z"/>
<path opacity="0.25" fill="#DFE9EA" d="M377.082,498.249c0.307-0.965,0.62-0.772,0.937-0.005c0,0.001-0.468,0.129-0.468,0.129
	L377.082,498.249z"/>
<path opacity="0.25" fill="#D2D6D6" d="M259.999,467.015c7.054,2.388,9.998,5.761,9.95,11.401
	c-0.045,5.337-3.408,8.974-9.935,10.746c-7.328-0.573-11.749-4.541-11.964-10.734C247.837,472.289,252.11,468.207,259.999,467.015z"
	/>
<path opacity="0.25" fill="#D2D6D6" d="M260.857,84.326c1.914,2.572,1.814,4.365-1.848,4.78
	C256.276,86.219,257.163,84.729,260.857,84.326z"/>
<path opacity="0.25" fill="#DFE9EA" d="M712.579,327.965c-8.488,0.005-16.983-0.216-25.46,0.095
	c-4.52,0.165-4.053-2.466-4.197-5.389c-0.159-3.217,0.54-4.795,4.297-4.757c17.142,0.174,34.284,0.196,51.424-0.013
	c4.097-0.051,4.535,1.729,4.506,5.091c-0.027,3.373-0.538,5.195-4.61,5.058C729.893,327.756,721.232,327.96,712.579,327.965z"/>
<path opacity="0.25" fill="#DFE9EA" d="M705.988,301.92c6.161,0,12.326,0.116,18.481-0.061c2.314-0.065,4.191-0.01,3.44,2.908
	c-0.632,2.45,2.348,6.91-2.761,7.024c-13.149,0.294-26.313,0.275-39.464-0.009c-4.716-0.103-2.175-4.274-2.639-6.626
	c-0.611-3.093,1.579-3.511,3.973-3.505c6.322,0.015,12.646,0.005,18.967,0.005C705.988,301.746,705.988,301.833,705.988,301.92z"/>
<path opacity="0.25" fill="#DFE9EA" d="M748.319,311.892c-3.663,0.006-7.336-0.153-10.988,0.048c-4.344,0.237-4.198-2.51-4.279-5.54
	c-0.079-2.972,0.457-4.606,4.041-4.54c7.945,0.146,15.898-0.113,23.848-0.252c0.698-0.013,1.529-0.116,1.688,0.588
	c0.622,2.779,0.714,5.677,0.024,8.386c-0.544,2.136-2.814,1.208-4.344,1.267C754.983,311.974,751.649,311.886,748.319,311.892z"/>
<path opacity="0.25" fill="#F4F9F9" d="M610.979,119.822c11.931-12.249,24.979-23.152,39.335-32.453
	c1.635-1.06,3.584-1.635,5.39-2.435c3.911-2.819,8.461-2.827,12.979-2.941c2.587-0.065,5.301,0.394,7.271-1.947
	c5.63,1.452,10.727,3.922,15.049,7.874c-6.98,0.376-13.959,0.832-20.942,1.11c-12.396,0.495-21.424,7.479-29.891,15.461
	c-7.402,6.979-13.995,14.708-20.284,22.698c-0.809,1.027-1.811,1.902-2.724,2.848C612.972,127.921,612.19,123.741,610.979,119.822z"
	/>
<path opacity="0.25" fill="#F4F9F9" d="M780.07,85.167c12.596,7.389,23.626,16.798,34.374,26.58
	c1.821,1.658,3.806,3.139,5.716,4.702c-0.928,5.038-3.426,9.348-6.252,13.504c0.246-1.197,0.066-2.253-0.735-3.261
	c-9.237-11.596-18.974-22.695-30.938-31.626c-7.422-5.54-16.004-6.859-24.943-7.156c-3.096-0.103-6.32,0.649-9.281-0.932
	c3.606-2.315,7.762-0.932,11.611-1.439C766.338,84.655,773.244,85.214,780.07,85.167z"/>
<path opacity="0.25" fill="#F4F9F9" d="M780.07,85.167c-6.826,0.047-13.732-0.512-20.449,0.372
	c-3.852,0.508-8.005-0.876-11.611,1.439c-1.766,0.049-3.61,0.577-5.122-0.858c3.533-5.134,9.519-5.495,14.67-6.901
	c15.417-4.21,31.259-4.768,47.165-4.252c4.101,0.133,7.831,1.432,11.348,3.2c1.791,0.901,4.483,2.011,3.281,5.162
	c-4.922,1.155-9.929,0.52-14.895,0.636C796.314,84.155,788.176,84.297,780.07,85.167z"/>
<path opacity="0.25" fill="#F4F9F9" d="M675.954,80.046c-1.972,2.341-4.686,1.882-7.271,1.947c-4.52,0.114-9.068,0.122-12.979,2.941
	c-5.38-2.128-11.055-0.898-16.575-1.33c-9.749-0.762-19.553-0.831-29.334-1.191c2.715-6.229,8.674-6.909,14.088-7.288
	C641.467,73.895,658.875,75.464,675.954,80.046z"/>
<path opacity="0.25" fill="#DFE9EA" d="M609.991,416.392c0,2.828-0.077,5.659,0.022,8.484c0.085,2.423-1.07,3.146-3.332,3.17
	c-2.39,0.025-3.771-0.528-3.701-3.301c0.168-6.604,0.178-13.209,0.218-19.814c0.012-2.045,1.508-2.009,2.784-1.883
	c1.383,0.136,3.558-1.051,3.625,1.915c0.086,3.81,0.365,7.613,0.562,11.419C610.11,416.386,610.051,416.389,609.991,416.392z"/>
<path opacity="0.25" fill="#DFE9EA" d="M609.985,392.04c-0.958,2.279,2.481,7.378-4.059,6.948c-0.331-0.021-0.75,0.082-0.979-0.081
	c-4.19-2.981-1.088-7.273-1.866-10.892c-0.472-2.189,0.532-3.855,3.177-4.006c2.329-0.132,3.947,0.333,3.745,3.171
	C609.898,388.667,609.985,390.165,609.985,392.04z"/>
<path opacity="0.25" fill="#D2D6D6" d="M822.97,399.99c0,25.99-0.01,51.99-0.02,77.99c0.06,7.09,0.13,14.18,0.188,21.27
	c-2.58,2.6-8.89,2.51-11.188-0.16c0.02-31.45-0.05-62.91,0.14-94.359c0.03-4.329-1.76-4.789-5.32-4.779
	c-46.55,0.068-93.09,0.029-139.64,0.02v-3.89c46.32-0.03,92.63-0.13,138.95,0.03c4.84,0.01,6.07-1.28,6.04-6.062
	c-0.24-33.99-0.181-67.97-0.21-101.96c0.01-28.06,0.029-56.12,0.04-84.18c2.42-2.75,8.648-2.79,11.13-0.06
	c-0.68,6.03,1.1,12.2-0.95,18.16c-0.08,0.85-0.3,1.63-1.1,2.12c0.028,0.24,0.028,0.49,0,0.73c2.93,0.74,1.92,3.15,1.93,4.93
	c0.09,19.43,0.1,38.86,0.13,58.28c-0.06,23.31-0.12,46.608-0.18,69.909c-0.01,0.681-0.021,1.359-0.03,2.051
	c0.04,8.608,0.09,17.229,0.11,25.84c0,1.13,0.188,2.359-0.932,3.18c-0.028,0.65-0.05,1.3-0.079,1.95
	c0.829,0.47,0.971,1.189,0.75,2.04h-0.011c0.03,0.68,0.05,1.37,0.07,2.06c0.14,0.24,0.229,0.512,0.28,0.78
	c8.608,0.062,17.22,0.13,25.829,0.19c-0.011,1.3-0.021,2.6-0.039,3.898C840.23,399.97,831.6,399.98,822.97,399.99z"/>
<path opacity="0.25" fill="#F49081" d="M528.998,325.001c0.43,0.12,0.857,0.241,1.285,0.361c-0.722,0.917-0.925,0.006-1.282-0.363
	L528.998,325.001z"/>
<path opacity="0.25" fill="#F49081" d="M530.527,216.635c0.07,0.129,0.205,0.263,0.193,0.385c-0.011,0.119-0.168,0.225-0.261,0.337
	C530.482,217.115,530.504,216.875,530.527,216.635z"/>
</svg>
